# Blender 4.5.4 LTS
# www.blender.org
mtllib first_aid_kit.mtl
o first_aid_kit
v 0.030000 0.184303 0.110422
v 0.030000 0.182476 0.119606
v 0.030000 0.177273 0.127393
v 0.030000 0.169487 0.132595
v 0.030000 0.160303 0.134422
v 0.030000 -0.000000 0.108022
v 0.030000 0.002010 0.118125
v 0.030000 0.007732 0.126690
v 0.030000 0.016297 0.132412
v 0.030000 0.026400 0.134422
v 0.030000 0.184303 -0.110422
v 0.030000 0.182476 -0.119606
v 0.030000 0.177273 -0.127393
v 0.030000 0.169487 -0.132595
v 0.030000 0.160303 -0.134422
v 0.030000 -0.000000 -0.108022
v 0.030000 0.002010 -0.118125
v 0.030000 0.007732 -0.126690
v 0.030000 0.016297 -0.132412
v 0.030000 0.026400 -0.134422
v 0.030000 0.180322 0.110030
v -0.031257 0.181405 0.110137
v -0.031337 0.179718 0.118464
v -0.031337 0.175163 0.125282
v -0.031337 0.168345 0.129837
v -0.031257 0.160017 0.131524
v -0.031337 0.004767 0.116983
v -0.031257 0.002897 0.107737
v 0.030000 0.005705 0.116594
v -0.031337 0.009843 0.124579
v 0.030000 0.010561 0.123861
v -0.031337 0.017439 0.129655
v 0.030000 0.017828 0.128717
v -0.031257 0.026685 0.131524
v 0.030000 0.026792 0.130441
v 0.030000 0.180322 -0.110030
v -0.031257 0.181405 -0.110137
v -0.031337 0.179718 -0.118464
v -0.031337 0.175163 -0.125282
v -0.031337 0.168345 -0.129837
v -0.031257 0.160017 -0.131524
v -0.031337 0.004767 -0.116983
v -0.031257 0.002897 -0.107737
v 0.030000 0.005705 -0.116594
v -0.031337 0.009843 -0.124579
v 0.030000 0.010561 -0.123861
v -0.031337 0.017439 -0.129655
v 0.030000 0.017828 -0.128717
v -0.031257 0.026685 -0.131524
v 0.030000 0.026792 -0.130441
v 0.030000 0.178780 0.118076
v 0.030000 0.174445 0.124564
v 0.030000 0.167956 0.128900
v 0.030000 0.159911 0.130441
v 0.030000 0.003981 0.107630
v 0.030000 0.178780 -0.118076
v 0.030000 0.174445 -0.124564
v 0.030000 0.167956 -0.128900
v 0.030000 0.159911 -0.130441
v 0.030000 0.003981 -0.107630
v -0.034000 0.159909 0.130422
v -0.030000 0.160303 0.134422
v -0.033804 0.160031 0.131658
v -0.033236 0.160140 0.132773
v -0.032351 0.160228 0.133658
v -0.031236 0.160283 0.134226
v -0.034000 0.180303 0.110028
v -0.030000 0.184303 0.110422
v -0.033804 0.181539 0.110150
v -0.033236 0.182654 0.110260
v -0.032351 0.183539 0.110347
v -0.031236 0.184107 0.110403
v -0.034000 0.167926 0.128827
v -0.030000 0.169487 0.132595
v -0.033804 0.168409 0.129992
v -0.033236 0.168844 0.131042
v -0.032351 0.169189 0.131875
v -0.031236 0.169411 0.132411
v -0.034000 0.174389 0.124509
v -0.030000 0.177273 0.127393
v -0.033804 0.175281 0.125400
v -0.033236 0.176085 0.126204
v -0.032351 0.176723 0.126842
v -0.031236 0.177132 0.127251
v -0.034000 0.178708 0.118046
v -0.030000 0.182476 0.119606
v -0.033804 0.179872 0.118528
v -0.033236 0.180923 0.118963
v -0.032351 0.181756 0.119308
v -0.031236 0.182291 0.119530
v -0.034000 0.004000 0.107628
v -0.030000 -0.000000 0.108022
v -0.033804 0.002764 0.107750
v -0.033236 0.001649 0.107860
v -0.032351 0.000764 0.107947
v -0.031236 0.000196 0.108003
v -0.034000 0.026794 0.130422
v -0.030000 0.026400 0.134422
v -0.033804 0.026672 0.131658
v -0.033236 0.026562 0.132773
v -0.032351 0.026475 0.133658
v -0.031236 0.026419 0.134226
v -0.034000 0.005777 0.116564
v -0.030000 0.002010 0.118125
v -0.033804 0.004613 0.117046
v -0.033236 0.003563 0.117481
v -0.032351 0.002729 0.117827
v -0.031236 0.002194 0.118048
v -0.034000 0.010616 0.123806
v -0.030000 0.007732 0.126690
v -0.033804 0.009725 0.124697
v -0.033236 0.008921 0.125501
v -0.032351 0.008283 0.126139
v -0.031236 0.007873 0.126548
v -0.034000 0.017858 0.128644
v -0.030000 0.016297 0.132412
v -0.033804 0.017376 0.129809
v -0.033236 0.016940 0.130859
v -0.032351 0.016595 0.131693
v -0.031236 0.016373 0.132228
v -0.030000 0.160303 -0.134422
v -0.034000 0.159909 -0.130422
v -0.031236 0.160283 -0.134226
v -0.032351 0.160228 -0.133658
v -0.033236 0.160140 -0.132773
v -0.033804 0.160031 -0.131658
v -0.034000 0.180303 -0.110028
v -0.030000 0.184303 -0.110422
v -0.033804 0.181539 -0.110150
v -0.033236 0.182654 -0.110260
v -0.032351 0.183539 -0.110347
v -0.031236 0.184107 -0.110403
v -0.030000 0.169487 -0.132595
v -0.034000 0.167926 -0.128827
v -0.031236 0.169411 -0.132411
v -0.032351 0.169189 -0.131875
v -0.033236 0.168844 -0.131042
v -0.033804 0.168409 -0.129992
v -0.030000 0.177273 -0.127393
v -0.034000 0.174389 -0.124509
v -0.031236 0.177132 -0.127251
v -0.032351 0.176723 -0.126842
v -0.033236 0.176085 -0.126204
v -0.033804 0.175281 -0.125400
v -0.030000 0.182476 -0.119606
v -0.034000 0.178708 -0.118046
v -0.031236 0.182291 -0.119530
v -0.032351 0.181756 -0.119308
v -0.033236 0.180923 -0.118963
v -0.033804 0.179872 -0.118528
v -0.030000 -0.000000 -0.108022
v -0.034000 0.004000 -0.107628
v -0.031236 0.000196 -0.108003
v -0.032351 0.000764 -0.107947
v -0.033236 0.001649 -0.107860
v -0.033804 0.002764 -0.107750
v -0.034000 0.026794 -0.130422
v -0.030000 0.026400 -0.134422
v -0.033804 0.026672 -0.131658
v -0.033236 0.026562 -0.132773
v -0.032351 0.026475 -0.133658
v -0.031236 0.026419 -0.134226
v -0.034000 0.005777 -0.116564
v -0.030000 0.002010 -0.118125
v -0.033804 0.004613 -0.117046
v -0.033236 0.003563 -0.117481
v -0.032351 0.002729 -0.117827
v -0.031236 0.002194 -0.118048
v -0.034000 0.010616 -0.123806
v -0.030000 0.007732 -0.126690
v -0.033804 0.009725 -0.124697
v -0.033236 0.008921 -0.125501
v -0.032351 0.008283 -0.126139
v -0.031236 0.007873 -0.126548
v -0.034000 0.017858 -0.128644
v -0.030000 0.016297 -0.132412
v -0.033804 0.017376 -0.129809
v -0.033236 0.016940 -0.130859
v -0.032351 0.016595 -0.131693
v -0.031236 0.016373 -0.132228
v 0.000240 0.184303 0.045760
v 0.001200 0.193903 0.044800
v 0.000240 0.184303 0.034240
v 0.001200 0.193903 0.035200
v 0.011760 0.184303 0.045760
v 0.010800 0.193903 0.044800
v 0.011760 0.184303 0.034240
v 0.010800 0.193903 0.035200
v 0.001200 0.201814 0.043547
v 0.001200 0.198847 0.034417
v 0.010800 0.201814 0.043547
v 0.010800 0.198847 0.034417
v 0.001200 0.208950 0.039911
v 0.001200 0.203307 0.032144
v 0.010800 0.208950 0.039911
v 0.010800 0.203307 0.032144
v 0.001200 0.214614 0.034247
v 0.001200 0.206847 0.028605
v 0.010800 0.214614 0.034247
v 0.010800 0.206847 0.028605
v 0.001200 0.218250 0.027111
v 0.001200 0.209120 0.024144
v 0.010800 0.218250 0.027111
v 0.010800 0.209120 0.024144
v 0.001200 0.219503 0.019200
v 0.001200 0.209903 0.019200
v 0.010800 0.219503 0.019200
v 0.010800 0.209903 0.019200
v 0.000240 0.184303 -0.034240
v 0.001200 0.193903 -0.035200
v 0.000240 0.184303 -0.045760
v 0.001200 0.193903 -0.044800
v 0.011760 0.184303 -0.034240
v 0.010800 0.193903 -0.035200
v 0.011760 0.184303 -0.045760
v 0.010800 0.193903 -0.044800
v 0.001200 0.198847 -0.034417
v 0.001200 0.201814 -0.043547
v 0.010800 0.198847 -0.034417
v 0.010800 0.201814 -0.043547
v 0.001200 0.203307 -0.032144
v 0.001200 0.208950 -0.039911
v 0.010800 0.203307 -0.032144
v 0.010800 0.208950 -0.039911
v 0.001200 0.206847 -0.028605
v 0.001200 0.214614 -0.034247
v 0.010800 0.206847 -0.028605
v 0.010800 0.214614 -0.034247
v 0.001200 0.209120 -0.024144
v 0.001200 0.218250 -0.027111
v 0.010800 0.209120 -0.024144
v 0.010800 0.218250 -0.027111
v 0.001200 0.209903 -0.019200
v 0.001200 0.219503 -0.019200
v 0.010800 0.209903 -0.019200
v 0.010800 0.219503 -0.019200
vn -0.0174 -0.9951 -0.0972
vn -0.0169 -0.9241 -0.3819
vn -0.0169 -0.9238 -0.3825
vn -0.0174 -0.9951 -0.0975
vn -0.0165 -0.7070 -0.7070
vn -0.0169 -0.3819 -0.9241
vn -0.0169 -0.3825 -0.9238
vn -0.0174 -0.0972 -0.9951
vn -0.0174 -0.0975 -0.9951
vn -0.0174 0.0973 -0.9951
vn -0.0174 0.0976 -0.9951
vn 1.0000 -0.0000 -0.0000
vn -0.0174 -0.9951 0.0975
vn -0.0174 -0.9951 0.0972
vn -0.0169 -0.9238 0.3825
vn -0.0169 -0.9241 0.3819
vn -0.0165 -0.7070 0.7070
vn -0.0169 -0.3825 0.9238
vn -0.0169 -0.3819 0.9241
vn -0.0174 -0.0975 0.9951
vn -0.0174 -0.0972 0.9951
vn -0.0174 0.0973 0.9951
vn -0.0174 0.0976 0.9951
vn -0.0169 0.3825 0.9238
vn -0.0169 0.3820 0.9240
vn -0.0165 0.7070 0.7070
vn -0.0169 0.9238 0.3825
vn -0.0169 0.9240 0.3820
vn -0.0174 0.9951 0.0976
vn -0.0174 0.9951 0.0973
vn -0.0174 0.9951 -0.0976
vn -0.0174 0.9951 -0.0973
vn -0.0169 0.3825 -0.9238
vn -0.0169 0.3820 -0.9240
vn -0.0165 0.7070 -0.7070
vn -0.0169 0.9238 -0.3825
vn -0.0169 0.9240 -0.3820
vn -0.9946 0.1036 0.0102
vn -0.9947 0.0948 0.0393
vn -0.9470 0.2967 0.1229
vn -0.9486 0.3150 0.0310
vn -0.8050 0.5481 0.2270
vn -0.8057 0.5895 0.0581
vn -0.5857 0.7488 0.3102
vn -0.5849 0.8072 0.0795
vn -0.3085 0.8788 0.3640
vn -0.3074 0.9470 0.0933
vn -0.0800 0.9209 0.3815
vn -0.0788 0.9921 0.0977
vn -0.9947 0.0726 0.0726
vn -0.9470 0.2271 0.2271
vn -0.8050 0.4195 0.4195
vn -0.5857 0.5731 0.5731
vn -0.3085 0.6726 0.6726
vn -0.0800 0.7048 0.7048
vn -0.9947 0.0393 0.0948
vn -0.9470 0.1229 0.2967
vn -0.8050 0.2270 0.5481
vn -0.5857 0.3102 0.7488
vn -0.3085 0.3640 0.8788
vn -0.0798 0.3815 0.9209
vn -0.9946 0.0102 0.1036
vn -0.9486 0.0310 0.3150
vn -0.8057 0.0581 0.5895
vn -0.5849 0.0795 0.8072
vn -0.3075 0.0933 0.9470
vn -0.0784 0.0977 0.9921
vn -0.9947 -0.0948 0.0393
vn -0.9946 -0.1036 0.0102
vn -0.9486 -0.3150 0.0310
vn -0.9470 -0.2967 0.1229
vn -0.8057 -0.5895 0.0581
vn -0.8050 -0.5481 0.2270
vn -0.5849 -0.8072 0.0795
vn -0.5857 -0.7488 0.3102
vn -0.3075 -0.9470 0.0933
vn -0.3085 -0.8788 0.3640
vn -0.0791 -0.9921 0.0977
vn -0.0798 -0.9209 0.3815
vn -0.9947 -0.0726 0.0726
vn -0.9470 -0.2271 0.2271
vn -0.8050 -0.4195 0.4195
vn -0.5857 -0.5731 0.5731
vn -0.3085 -0.6726 0.6726
vn -0.0800 -0.7048 0.7048
vn -0.9947 -0.0393 0.0948
vn -0.9470 -0.1229 0.2967
vn -0.8050 -0.2270 0.5481
vn -0.5857 -0.3102 0.7488
vn -0.3085 -0.3640 0.8788
vn -0.0799 -0.3815 0.9209
vn -0.9946 -0.0102 0.1036
vn -0.9486 -0.0310 0.3150
vn -0.8057 -0.0581 0.5895
vn -0.5849 -0.0795 0.8072
vn -0.3075 -0.0933 0.9470
vn -0.0791 -0.0977 0.9921
vn -0.0788 0.9921 -0.0977
vn -0.0799 0.9209 -0.3815
vn -0.3085 0.8788 -0.3640
vn -0.3074 0.9470 -0.0933
vn -0.5857 0.7488 -0.3102
vn -0.5849 0.8072 -0.0795
vn -0.8050 0.5481 -0.2270
vn -0.8057 0.5895 -0.0581
vn -0.9470 0.2967 -0.1229
vn -0.9486 0.3150 -0.0310
vn -0.9947 0.0948 -0.0393
vn -0.9946 0.1036 -0.0102
vn -0.0800 0.7048 -0.7048
vn -0.3085 0.6726 -0.6726
vn -0.5857 0.5731 -0.5731
vn -0.8050 0.4195 -0.4195
vn -0.9470 0.2271 -0.2271
vn -0.9947 0.0726 -0.0726
vn -0.0800 0.3815 -0.9209
vn -0.3085 0.3640 -0.8788
vn -0.5857 0.3102 -0.7488
vn -0.8050 0.2270 -0.5481
vn -0.9470 0.1229 -0.2967
vn -0.9947 0.0393 -0.0948
vn -0.0784 0.0977 -0.9921
vn -0.3075 0.0933 -0.9470
vn -0.5849 0.0795 -0.8072
vn -0.8057 0.0581 -0.5895
vn -0.9486 0.0310 -0.3150
vn -0.9946 0.0102 -0.1036
vn -0.0799 -0.9209 -0.3815
vn -0.0791 -0.9921 -0.0977
vn -0.3075 -0.9470 -0.0933
vn -0.3085 -0.8788 -0.3640
vn -0.5849 -0.8072 -0.0795
vn -0.5857 -0.7488 -0.3102
vn -0.8057 -0.5895 -0.0581
vn -0.8050 -0.5481 -0.2270
vn -0.9486 -0.3150 -0.0310
vn -0.9470 -0.2967 -0.1229
vn -0.9946 -0.1036 -0.0102
vn -0.9947 -0.0948 -0.0393
vn -0.0799 -0.7048 -0.7048
vn -0.3085 -0.6726 -0.6726
vn -0.5857 -0.5731 -0.5731
vn -0.8050 -0.4195 -0.4195
vn -0.9470 -0.2271 -0.2271
vn -0.9947 -0.0726 -0.0726
vn -0.0799 -0.3815 -0.9209
vn -0.3085 -0.3640 -0.8788
vn -0.5857 -0.3102 -0.7488
vn -0.8050 -0.2270 -0.5481
vn -0.9470 -0.1229 -0.2967
vn -0.9947 -0.0393 -0.0948
vn -0.0792 -0.0977 -0.9921
vn -0.3075 -0.0933 -0.9470
vn -0.5849 -0.0795 -0.8072
vn -0.8057 -0.0581 -0.5895
vn -0.9486 -0.0310 -0.3150
vn -0.9946 -0.0102 -0.1036
vn -0.0000 -0.0980 0.9952
vn -0.0000 0.0980 0.9952
vn -0.0000 0.3827 0.9239
vn -0.0000 0.9952 0.0980
vn -0.0000 0.9952 -0.0980
vn -0.0000 0.9239 0.3827
vn -0.0000 0.7071 0.7071
vn -0.0000 -0.9952 0.0980
vn -0.0000 -0.9239 0.3827
vn -0.0000 -0.9952 -0.0980
vn -0.0000 -0.3827 0.9239
vn -0.0000 -0.7071 0.7071
vn -0.0000 0.3827 -0.9239
vn -0.0000 0.0980 -0.9952
vn -0.0000 -0.0980 -0.9952
vn -0.0000 0.9239 -0.3827
vn -0.0000 0.7071 -0.7071
vn -0.0000 -0.9239 -0.3827
vn -0.0000 -0.3827 -0.9239
vn -0.0000 -0.7071 -0.7071
vn -0.9950 0.0995 -0.0000
vn -0.9985 0.0540 -0.0000
vn -0.9988 0.0490 -0.0000
vn -0.0000 0.0995 -0.9950
vn -0.0000 -0.0248 -0.9997
vn 0.9950 0.0995 -0.0000
vn 0.9988 0.0490 -0.0000
vn 0.9985 0.0540 -0.0000
vn -0.0000 0.0995 0.9950
vn -0.0000 0.1272 0.9919
vn -0.0000 -1.0000 -0.0000
vn -1.0000 -0.0000 -0.0000
vn -0.0000 0.3090 0.9511
vn -0.0000 -0.3090 -0.9511
vn -0.0000 0.5878 0.8090
vn -0.0000 -0.5878 -0.8090
vn -0.0000 0.8090 0.5878
vn -0.0000 0.9511 0.3090
vn -0.0000 -0.8090 -0.5878
vn -0.0000 -0.9511 -0.3090
vn -0.0000 0.9969 0.0785
vn -0.0000 -0.9969 -0.0785
vn -0.0000 0.1272 -0.9919
vn -0.0000 -0.0248 0.9997
vn -0.0000 0.3090 -0.9511
vn -0.0000 -0.3090 0.9511
vn -0.0000 -0.5878 0.8090
vn -0.0000 0.5878 -0.8090
vn -0.0000 -0.8090 0.5878
vn -0.0000 -0.9511 0.3090
vn -0.0000 0.8090 -0.5878
vn -0.0000 0.9511 -0.3090
vn -0.0000 0.9969 -0.0785
vn -0.0000 -0.9969 0.0785
vt 0.738808 0.652390
vt 0.738999 0.657048
vt 0.692598 0.657273
vt 0.692450 0.652452
vt 0.739535 0.660804
vt 0.693161 0.661220
vt 0.794068 0.653140
vt 0.793528 0.659365
vt 0.747127 0.658952
vt 0.747694 0.652411
vt 0.793333 0.667085
vt 0.746974 0.666942
vt 0.793262 0.794813
vt 0.746904 0.794875
vt 0.678669 0.801972
vt 0.677297 0.807110
vt 0.673571 0.811332
vt 0.667994 0.814153
vt 0.661206 0.815192
vt 0.563327 0.815192
vt 0.557214 0.814255
vt 0.552209 0.811723
vt 0.548864 0.807934
vt 0.547626 0.803306
vt 0.547626 0.680882
vt 0.548864 0.676254
vt 0.552209 0.672465
vt 0.557214 0.669933
vt 0.563327 0.668995
vt 0.661206 0.668995
vt 0.667994 0.670035
vt 0.673571 0.672856
vt 0.677297 0.677078
vt 0.678669 0.682216
vt 0.692450 0.524931
vt 0.738808 0.524992
vt 0.692598 0.520110
vt 0.738999 0.520335
vt 0.693161 0.516162
vt 0.739535 0.516578
vt 0.803320 0.658508
vt 0.849694 0.657813
vt 0.850261 0.664051
vt 0.803860 0.664445
vt 0.850414 0.671671
vt 0.804055 0.671807
vt 0.804126 0.793615
vt 0.850485 0.793674
vt 0.850319 0.802135
vt 0.803917 0.801818
vt 0.849695 0.809087
vt 0.803320 0.808468
vt 0.739451 0.667433
vt 0.693050 0.667658
vt 0.692450 0.663451
vt 0.738824 0.663036
vt 0.739622 0.672786
vt 0.693263 0.672848
vt 0.739622 0.797528
vt 0.693263 0.797466
vt 0.747070 0.803747
vt 0.793471 0.803414
vt 0.747693 0.811036
vt 0.794068 0.810388
vt 0.739451 0.802881
vt 0.738824 0.807279
vt 0.692450 0.806863
vt 0.693050 0.802656
vt 0.663543 0.667252
vt 0.663255 0.665040
vt 0.669836 0.664081
vt 0.670960 0.666135
vt 0.565244 0.517834
vt 0.565532 0.520047
vt 0.559626 0.520904
vt 0.558502 0.518850
vt 0.547626 0.531173
vt 0.550548 0.531391
vt 0.550548 0.653696
vt 0.547626 0.653913
vt 0.675171 0.661383
vt 0.677247 0.662955
vt 0.554863 0.523313
vt 0.552786 0.521741
vt 0.682923 0.652580
vt 0.680001 0.652362
vt 0.680001 0.532725
vt 0.682923 0.532507
vt 0.678735 0.657344
vt 0.681448 0.658195
vt 0.551680 0.526919
vt 0.548967 0.526069
vt 0.663543 0.517834
vt 0.663255 0.520047
vt 0.670960 0.518951
vt 0.669836 0.521005
vt 0.558502 0.666237
vt 0.559626 0.664183
vt 0.565532 0.665040
vt 0.565244 0.667252
vt 0.677247 0.522132
vt 0.675171 0.523704
vt 0.552786 0.663345
vt 0.554863 0.661773
vt 0.681448 0.526892
vt 0.678735 0.527743
vt 0.548967 0.659018
vt 0.551680 0.658167
vt 0.029788 0.789321
vt 0.032170 0.798390
vt 0.030431 0.798936
vt 0.027941 0.789459
vt 0.028861 0.799428
vt 0.026275 0.789584
vt 0.306628 0.782343
vt 0.307031 0.791820
vt 0.305581 0.792195
vt 0.305166 0.782438
vt 0.303874 0.792437
vt 0.303451 0.782498
vt 0.302076 0.792520
vt 0.301651 0.782520
vt 0.038622 0.805700
vt 0.037291 0.806708
vt 0.036090 0.807618
vt 0.361575 0.760049
vt 0.366250 0.765347
vt 0.365634 0.765813
vt 0.360769 0.760302
vt 0.306752 0.800398
vt 0.305074 0.800844
vt 0.303287 0.800998
vt 0.048278 0.810585
vt 0.047557 0.811902
vt 0.046907 0.813090
vt 0.373247 0.768886
vt 0.372914 0.769496
vt 0.344607 0.527559
vt 0.342894 0.539558
vt 0.340397 0.539205
vt 0.342153 0.526907
vt 0.337768 0.539083
vt 0.339539 0.526682
vt 0.060256 0.812389
vt 0.060075 0.813787
vt 0.059911 0.815048
vt 0.345015 0.540108
vt 0.344426 0.553970
vt 0.342288 0.553831
vt 0.339779 0.553742
vt 0.337147 0.553711
vt 0.290531 0.796714
vt 0.293187 0.786607
vt 0.295034 0.786744
vt 0.292271 0.797260
vt 0.296700 0.786869
vt 0.293840 0.797752
vt 0.311542 0.789441
vt 0.311987 0.778964
vt 0.313449 0.779059
vt 0.312991 0.789817
vt 0.315163 0.779120
vt 0.314699 0.790058
vt 0.316963 0.779141
vt 0.316496 0.790141
vt 0.283302 0.804905
vt 0.284633 0.805913
vt 0.285834 0.806823
vt 0.527793 0.764832
vt 0.532972 0.758965
vt 0.533777 0.759218
vt 0.528410 0.765299
vt 0.311699 0.798867
vt 0.313377 0.799313
vt 0.315164 0.799467
vt 0.272483 0.810378
vt 0.273204 0.811695
vt 0.273854 0.812883
vt 0.520044 0.768753
vt 0.520377 0.769363
vt 0.342956 0.782590
vt 0.344846 0.795828
vt 0.342392 0.796481
vt 0.340460 0.782943
vt 0.339778 0.796705
vt 0.337831 0.783065
vt 0.259132 0.812389
vt 0.259314 0.813787
vt 0.259478 0.815048
vt 0.344426 0.766716
vt 0.345077 0.782040
vt 0.342288 0.766854
vt 0.339779 0.766944
vt 0.337147 0.766974
vt 0.301651 0.542056
vt 0.302076 0.532055
vt 0.303874 0.532139
vt 0.303451 0.542077
vt 0.305581 0.532380
vt 0.305166 0.542138
vt 0.307031 0.532756
vt 0.306628 0.542233
vt 0.026275 0.540155
vt 0.028861 0.530311
vt 0.030431 0.530803
vt 0.027941 0.540279
vt 0.032170 0.531348
vt 0.029788 0.540417
vt 0.303287 0.523578
vt 0.305074 0.523731
vt 0.306752 0.524177
vt 0.360769 0.585723
vt 0.365634 0.580211
vt 0.366250 0.580678
vt 0.361575 0.585975
vt 0.036090 0.522120
vt 0.037291 0.523030
vt 0.038622 0.524038
vt 0.327907 0.529129
vt 0.329687 0.541602
vt 0.327043 0.541725
vt 0.325277 0.529355
vt 0.324532 0.542080
vt 0.322809 0.530011
vt 0.372914 0.576528
vt 0.373248 0.577138
vt 0.046907 0.516648
vt 0.047557 0.517836
vt 0.048278 0.519153
vt 0.330313 0.556317
vt 0.327664 0.556347
vt 0.325142 0.556437
vt 0.322991 0.556577
vt 0.322398 0.542633
vt 0.059911 0.514690
vt 0.060075 0.515951
vt 0.060257 0.517349
vt 0.316496 0.532903
vt 0.316963 0.543904
vt 0.315163 0.543925
vt 0.314699 0.532986
vt 0.313449 0.543985
vt 0.312991 0.533228
vt 0.311987 0.544080
vt 0.311542 0.533604
vt 0.293840 0.531986
vt 0.296700 0.542870
vt 0.295034 0.542994
vt 0.292271 0.532479
vt 0.293187 0.543132
vt 0.290531 0.533024
vt 0.315164 0.523578
vt 0.313377 0.523731
vt 0.311699 0.524177
vt 0.528410 0.580725
vt 0.533777 0.586807
vt 0.532972 0.587059
vt 0.527793 0.581192
vt 0.285835 0.522916
vt 0.284633 0.523825
vt 0.283302 0.524833
vt 0.329625 0.787022
vt 0.327666 0.800743
vt 0.325037 0.800517
vt 0.326981 0.786899
vt 0.322568 0.799861
vt 0.324469 0.786544
vt 0.520377 0.576662
vt 0.520044 0.577272
vt 0.273854 0.516855
vt 0.273204 0.518043
vt 0.272483 0.519360
vt 0.330313 0.770837
vt 0.327664 0.770806
vt 0.325142 0.770716
vt 0.322336 0.785991
vt 0.322991 0.770576
vt 0.259478 0.514690
vt 0.259314 0.515951
vt 0.259132 0.517349
vt 0.812324 0.625973
vt 0.812324 0.532535
vt 0.850006 0.532535
vt 0.850006 0.625973
vt 0.812512 0.526126
vt 0.850195 0.526126
vt 0.355475 0.794803
vt 0.355475 0.549221
vt 0.442444 0.549221
vt 0.442444 0.794803
vt 0.442878 0.805016
vt 0.355909 0.805016
vt 0.813047 0.520693
vt 0.850730 0.520693
vt 0.444114 0.813675
vt 0.357145 0.813675
vt 0.451734 0.791353
vt 0.538703 0.791353
vt 0.538225 0.802587
vt 0.451257 0.802587
vt 0.451734 0.551108
vt 0.538703 0.551108
vt 0.850213 0.633022
vt 0.812530 0.633022
vt 0.536866 0.812111
vt 0.449897 0.812111
vt 0.850802 0.638999
vt 0.813120 0.638999
vt 0.783370 0.520572
vt 0.783558 0.527708
vt 0.745875 0.527708
vt 0.745687 0.520572
vt 0.783558 0.631743
vt 0.745875 0.631744
vt 0.355909 0.539007
vt 0.442878 0.539007
vt 0.782834 0.514522
vt 0.745151 0.514522
vt 0.357145 0.530349
vt 0.444114 0.530349
vt 0.451257 0.539873
vt 0.538225 0.539873
vt 0.745668 0.639593
vt 0.783351 0.639593
vt 0.449897 0.530349
vt 0.536866 0.530349
vt 0.745079 0.646247
vt 0.782762 0.646247
vt 0.092547 0.971060
vt 0.078540 0.969661
vt 0.078540 0.955674
vt 0.092547 0.954275
vt 0.174786 0.910741
vt 0.176184 0.896714
vt 0.190171 0.896714
vt 0.191570 0.910741
vt 0.144589 0.854501
vt 0.130582 0.853102
vt 0.130582 0.839115
vt 0.144589 0.837716
vt 0.174786 0.882433
vt 0.176184 0.868406
vt 0.190171 0.868406
vt 0.191570 0.882433
vt 0.058030 0.971801
vt 0.058030 0.988585
vt 0.041245 0.988585
vt 0.041245 0.971801
vt 0.123379 0.854243
vt 0.119058 0.840940
vt 0.116882 0.857554
vt 0.108661 0.846238
vt 0.067015 0.967836
vt 0.071337 0.954533
vt 0.176184 0.856823
vt 0.190171 0.856823
vt 0.176184 0.889554
vt 0.190171 0.889554
vt 0.111725 0.862711
vt 0.100410 0.854490
vt 0.056619 0.962538
vt 0.064839 0.951222
vt 0.176184 0.846248
vt 0.190171 0.846248
vt 0.176184 0.883174
vt 0.190171 0.883174
vt 0.145330 0.837716
vt 0.159317 0.837716
vt 0.159317 0.848114
vt 0.145330 0.848114
vt 0.048368 0.954286
vt 0.059683 0.946065
vt 0.176184 0.837716
vt 0.190171 0.837716
vt 0.160058 0.837716
vt 0.174045 0.837716
vt 0.174045 0.842874
vt 0.160058 0.842874
vt 0.095113 0.864888
vt 0.108414 0.869210
vt 0.107273 0.876414
vt 0.093288 0.876414
vt 0.174045 0.849372
vt 0.160058 0.849372
vt 0.043071 0.943888
vt 0.056372 0.939566
vt 0.107273 0.932362
vt 0.093288 0.932362
vt 0.041245 0.932362
vt 0.055231 0.932362
vt 0.159317 0.859640
vt 0.145330 0.859640
vt 0.174045 0.856576
vt 0.160058 0.856576
vt 0.092547 0.854501
vt 0.078540 0.853102
vt 0.078540 0.839115
vt 0.092547 0.837716
vt 0.160058 0.976841
vt 0.161457 0.962814
vt 0.175444 0.962814
vt 0.176842 0.976841
vt 0.144589 0.971060
vt 0.130582 0.969661
vt 0.130582 0.955674
vt 0.144589 0.954275
vt 0.177583 0.959692
vt 0.178982 0.945665
vt 0.192969 0.945665
vt 0.194368 0.959692
vt 0.191570 0.928266
vt 0.174786 0.928266
vt 0.174786 0.911481
vt 0.191570 0.911481
vt 0.161457 0.951232
vt 0.175444 0.951232
vt 0.192969 0.938505
vt 0.178982 0.938505
vt 0.178982 0.932125
vt 0.192969 0.932125
vt 0.119058 0.967836
vt 0.123379 0.954533
vt 0.071337 0.854243
vt 0.067015 0.840940
vt 0.116882 0.951222
vt 0.108661 0.962538
vt 0.100410 0.954286
vt 0.111725 0.946065
vt 0.161457 0.940657
vt 0.175444 0.940657
vt 0.064839 0.857554
vt 0.056619 0.846238
vt 0.174045 0.926227
vt 0.160058 0.926227
vt 0.160058 0.919728
vt 0.174045 0.919728
vt 0.059683 0.862711
vt 0.048368 0.854490
vt 0.174045 0.931384
vt 0.160058 0.931384
vt 0.161457 0.932125
vt 0.175444 0.932125
vt 0.159317 0.927114
vt 0.145330 0.927114
vt 0.145330 0.915588
vt 0.159317 0.915588
vt 0.159317 0.937512
vt 0.145330 0.937512
vt 0.095113 0.943888
vt 0.108414 0.939566
vt 0.056372 0.869210
vt 0.043071 0.864888
vt 0.174045 0.912524
vt 0.160058 0.912524
vt 0.055231 0.876414
vt 0.041245 0.876414
s 1
usemtl first_aid_kit
f 21/1/1 51/2/2 23/3/3 22/4/4
f 51/2/2 52/5/5 24/6/5 23/3/3
f 52/7/5 53/8/6 25/9/7 24/10/5
f 53/8/6 54/11/8 26/12/9 25/9/7
f 35/13/10 34/14/11 26/12/9 54/11/8
f 43/15/12 42/16/12 45/17/12 47/18/12 49/19/12 41/20/12 40/21/12 39/22/12 38/23/12 37/24/12 22/25/12 23/26/12 24/27/12 25/28/12 26/29/12 34/30/12 32/31/12 30/32/12 27/33/12 28/34/12
f 21/1/1 22/4/4 37/35/13 36/36/14
f 36/36/14 37/35/13 38/37/15 56/38/16
f 56/38/16 38/37/15 39/39/17 57/40/17
f 57/41/17 39/42/17 40/43/18 58/44/19
f 58/44/19 40/43/18 41/45/20 59/46/21
f 50/47/22 59/46/21 41/45/20 49/48/23
f 47/49/24 48/50/25 50/47/22 49/48/23
f 45/51/26 46/52/26 48/50/25 47/49/24
f 42/53/27 44/54/28 46/55/26 45/56/26
f 43/57/29 60/58/30 44/54/28 42/53/27
f 28/59/31 55/60/32 60/58/30 43/57/29
f 32/61/33 34/14/11 35/13/10 33/62/34
f 30/63/35 32/61/33 33/62/34 31/64/35
f 27/65/36 30/66/35 31/67/35 29/68/37
f 28/59/31 27/65/36 29/68/37 55/60/32
f 20/69/12 50/70/12 48/71/12 19/72/12
f 5/73/12 54/74/12 53/75/12 4/76/12
f 1/77/12 21/78/12 36/79/12 11/80/12
f 19/72/12 48/71/12 46/81/12 18/82/12
f 4/76/12 53/75/12 52/83/12 3/84/12
f 16/85/12 60/86/12 55/87/12 6/88/12
f 18/82/12 46/81/12 44/89/12 17/90/12
f 3/84/12 52/83/12 51/91/12 2/92/12
f 10/93/12 35/94/12 54/74/12 5/73/12
f 17/90/12 44/89/12 60/86/12 16/85/12
f 2/92/12 51/91/12 21/78/12 1/77/12
f 9/95/12 33/96/12 35/94/12 10/93/12
f 14/97/12 58/98/12 59/99/12 15/100/12
f 8/101/12 31/102/12 33/96/12 9/95/12
f 13/103/12 57/104/12 58/98/12 14/97/12
f 7/105/12 29/106/12 31/102/12 8/101/12
f 12/107/12 56/108/12 57/104/12 13/103/12
f 15/100/12 59/99/12 50/70/12 20/69/12
f 6/88/12 55/87/12 29/106/12 7/105/12
f 11/80/12 36/79/12 56/108/12 12/107/12
f 67/109/38 85/110/39 87/111/40 69/112/41
f 69/112/41 87/111/40 88/113/42 70/114/43
f 70/115/43 88/116/42 89/117/44 71/118/45
f 71/118/45 89/117/44 90/119/46 72/120/47
f 72/120/47 90/119/46 86/121/48 68/122/49
f 85/110/39 79/123/50 81/124/51 87/111/40
f 87/111/40 81/124/51 82/125/52 88/113/42
f 88/126/42 82/127/52 83/128/53 89/129/44
f 89/117/44 83/130/53 84/131/54 90/119/46
f 90/119/46 84/131/54 80/132/55 86/121/48
f 79/123/50 73/133/56 75/134/57 81/124/51
f 81/124/51 75/134/57 76/135/58 82/125/52
f 82/127/52 76/136/58 77/137/59 83/128/53
f 83/138/53 77/139/59 78/140/60 84/141/54
f 84/141/54 78/140/60 74/142/61 80/143/55
f 73/133/56 61/144/62 63/145/63 75/134/57
f 75/134/57 63/145/63 64/146/64 76/135/58
f 76/147/58 64/148/64 65/149/65 77/139/59
f 77/139/59 65/149/65 66/150/66 78/140/60
f 78/140/60 66/150/66 62/151/67 74/142/61
f 103/152/68 91/153/69 93/154/70 105/155/71
f 105/155/71 93/154/70 94/156/72 106/157/73
f 106/158/73 94/159/72 95/160/74 107/161/75
f 107/161/75 95/160/74 96/162/76 108/163/77
f 108/163/77 96/162/76 92/164/78 104/165/79
f 109/166/80 103/152/68 105/155/71 111/167/81
f 111/167/81 105/155/71 106/157/73 112/168/82
f 112/169/82 106/170/73 107/171/75 113/172/83
f 113/173/83 107/161/75 108/163/77 114/174/84
f 114/174/84 108/163/77 104/165/79 110/175/85
f 115/176/86 109/166/80 111/167/81 117/177/87
f 117/177/87 111/167/81 112/168/82 118/178/88
f 118/179/88 112/169/82 113/172/83 119/180/89
f 119/181/89 113/182/83 114/183/84 120/184/90
f 120/184/90 114/183/84 110/185/85 116/186/91
f 97/187/92 115/176/86 117/177/87 99/188/93
f 99/188/93 117/177/87 118/178/88 100/189/94
f 100/190/94 118/191/88 119/181/89 101/192/95
f 101/192/95 119/181/89 120/184/90 102/193/96
f 102/193/96 120/184/90 116/186/91 98/194/97
f 61/144/62 97/187/92 99/188/93 63/145/63
f 63/145/63 99/188/93 100/189/94 64/146/64
f 64/148/64 100/190/94 101/192/95 65/149/65
f 65/149/65 101/192/95 102/193/96 66/150/66
f 66/150/66 102/193/96 98/194/97 62/151/67
f 128/195/98 145/196/99 147/197/100 132/198/101
f 132/198/101 147/197/100 148/199/102 131/200/103
f 131/200/103 148/199/102 149/201/104 130/202/105
f 130/203/105 149/204/104 150/205/106 129/206/107
f 129/206/107 150/205/106 146/207/108 127/208/109
f 145/196/99 139/209/110 141/210/111 147/197/100
f 147/197/100 141/210/111 142/211/112 148/199/102
f 148/212/102 142/213/112 143/214/113 149/215/104
f 149/204/104 143/216/113 144/217/114 150/205/106
f 150/205/106 144/217/114 140/218/115 146/207/108
f 139/219/110 133/220/116 135/221/117 141/222/111
f 141/222/111 135/221/117 136/223/118 142/224/112
f 142/213/112 136/225/118 137/226/119 143/214/113
f 143/216/113 137/227/119 138/228/120 144/217/114
f 144/217/114 138/228/120 134/229/121 140/218/115
f 133/220/116 121/230/122 123/231/123 135/221/117
f 135/221/117 123/231/123 124/232/124 136/223/118
f 136/223/118 124/232/124 125/233/125 137/234/119
f 137/227/119 125/235/125 126/236/126 138/228/120
f 138/228/120 126/236/126 122/237/127 134/229/121
f 68/122/49 128/195/98 132/198/101 72/120/47
f 72/120/47 132/198/101 131/200/103 71/118/45
f 71/118/45 131/200/103 130/202/105 70/115/43
f 70/114/43 130/203/105 129/206/107 69/112/41
f 69/112/41 129/206/107 127/208/109 67/109/38
f 164/238/128 151/239/129 153/240/130 168/241/131
f 168/241/131 153/240/130 154/242/132 167/243/133
f 167/243/133 154/242/132 155/244/134 166/245/135
f 166/246/135 155/247/134 156/248/136 165/249/137
f 165/249/137 156/248/136 152/250/138 163/251/139
f 170/252/140 164/238/128 168/241/131 174/253/141
f 174/253/141 168/241/131 167/243/133 173/254/142
f 173/255/142 167/256/133 166/257/135 172/258/143
f 172/259/143 166/246/135 165/249/137 171/260/144
f 171/260/144 165/249/137 163/251/139 169/261/145
f 176/262/146 170/263/140 174/264/141 180/265/147
f 180/265/147 174/264/141 173/266/142 179/267/148
f 179/268/148 173/255/142 172/258/143 178/269/149
f 178/270/149 172/259/143 171/260/144 177/271/150
f 177/271/150 171/260/144 169/261/145 175/272/151
f 158/273/152 176/262/146 180/265/147 162/274/153
f 162/274/153 180/265/147 179/267/148 161/275/154
f 161/275/154 179/267/148 178/276/149 160/277/155
f 160/278/155 178/270/149 177/271/150 159/279/156
f 159/279/156 177/271/150 175/272/151 157/280/157
f 121/230/122 158/273/152 162/274/153 123/231/123
f 123/231/123 162/274/153 161/275/154 124/232/124
f 124/232/124 161/275/154 160/277/155 125/233/125
f 125/235/125 160/278/155 159/279/156 126/236/126
f 126/236/126 159/279/156 157/280/157 122/237/127
f 151/239/129 92/164/78 96/162/76 153/240/130
f 153/240/130 96/162/76 95/160/74 154/242/132
f 154/242/132 95/160/74 94/159/72 155/244/134
f 155/247/134 94/156/72 93/154/70 156/248/136
f 156/248/136 93/154/70 91/153/69 152/250/138
f 152/250/138 91/153/69 103/152/68 109/166/80 115/176/86 97/187/92 61/144/62 73/133/56 79/123/50 85/110/39 67/109/38 127/208/109 146/207/108 140/218/115 134/229/121 122/237/127 157/280/157 175/272/151 169/261/145 163/251/139
f 10/281/158 5/282/159 62/283/67 98/284/97
f 4/285/160 74/286/61 62/283/67 5/282/159
f 1/287/161 11/288/162 128/289/98 68/290/49
f 1/287/161 68/290/49 86/291/48 2/292/163
f 3/293/164 80/294/55 74/286/61 4/285/160
f 2/292/163 86/291/48 80/295/55 3/296/164
f 92/297/78 6/298/165 7/299/166 104/300/79
f 92/297/78 151/301/129 16/302/167 6/298/165
f 116/303/91 9/304/168 10/281/158 98/284/97
f 104/300/79 7/299/166 8/305/169 110/306/85
f 110/307/85 8/308/169 9/304/168 116/303/91
f 14/309/170 15/310/171 121/311/122 133/312/116
f 20/313/172 158/314/152 121/311/122 15/310/171
f 11/288/162 12/315/173 145/316/99 128/289/98
f 13/317/174 14/309/170 133/312/116 139/318/110
f 12/315/173 13/319/174 139/320/110 145/316/99
f 151/301/129 164/321/128 17/322/175 16/302/167
f 176/323/146 158/314/152 20/313/172 19/324/176
f 164/321/128 170/325/140 18/326/177 17/322/175
f 170/327/140 176/323/146 19/324/176 18/328/177
f 181/329/178 182/330/179 184/331/180 183/332/178
f 183/333/181 184/334/182 188/335/182 187/336/181
f 187/337/183 188/338/184 186/339/185 185/340/183
f 185/341/186 186/342/187 182/343/187 181/344/186
f 183/345/188 187/346/188 185/347/188 181/348/188
f 186/339/185 188/338/184 192/349/12 191/350/12
f 191/350/12 192/349/12 196/351/12 195/352/12
f 184/331/180 182/330/179 189/353/189 190/354/189
f 182/343/187 186/342/187 191/355/190 189/356/190
f 188/335/182 184/334/182 190/357/191 192/358/191
f 195/352/12 196/351/12 200/359/12 199/360/12
f 190/354/189 189/353/189 193/361/189 194/362/189
f 189/356/190 191/355/190 195/363/192 193/364/192
f 192/358/191 190/357/191 194/365/193 196/366/193
f 197/367/194 199/368/194 203/369/195 201/370/195
f 194/362/189 193/361/189 197/371/189 198/372/189
f 193/364/192 195/363/192 199/373/194 197/374/194
f 196/375/193 194/376/193 198/377/196 200/378/196
f 203/379/12 204/380/12 208/381/12 207/382/12
f 200/378/196 198/377/196 202/383/197 204/384/197
f 199/360/12 200/359/12 204/380/12 203/379/12
f 198/372/189 197/371/189 201/385/189 202/386/189
f 235/387/12 236/388/12 207/382/12 208/381/12
f 202/386/189 201/385/189 205/389/189 206/390/189
f 201/370/195 203/369/195 207/391/198 205/392/198
f 204/384/197 202/383/197 206/393/199 208/394/199
f 209/395/178 210/396/180 212/397/179 211/398/178
f 211/399/181 212/400/200 216/401/200 215/402/181
f 215/403/183 216/404/185 214/405/184 213/406/183
f 213/407/186 214/408/201 210/409/201 209/410/186
f 211/411/188 215/412/188 213/413/188 209/414/188
f 216/401/200 212/400/200 218/415/202 220/416/202
f 217/417/203 219/418/203 223/419/204 221/420/204
f 214/405/184 216/404/185 220/421/12 219/422/12
f 212/397/179 210/396/180 217/423/189 218/424/189
f 210/409/201 214/408/201 219/418/203 217/417/203
f 223/425/12 224/426/12 228/427/12 227/428/12
f 220/416/202 218/415/202 222/429/205 224/430/205
f 219/422/12 220/421/12 224/426/12 223/425/12
f 218/424/189 217/423/189 221/431/189 222/432/189
f 225/433/206 227/434/206 231/435/207 229/436/207
f 222/432/189 221/431/189 225/437/189 226/438/189
f 221/439/204 223/440/204 227/434/206 225/433/206
f 224/430/205 222/429/205 226/441/208 228/442/208
f 232/443/209 230/444/209 234/445/210 236/446/210
f 228/447/208 226/448/208 230/444/209 232/443/209
f 227/428/12 228/427/12 232/449/12 231/450/12
f 226/438/189 225/437/189 229/451/189 230/452/189
f 233/453/211 235/454/211 208/394/199 206/393/199
f 231/450/12 232/449/12 236/388/12 235/387/12
f 230/452/189 229/451/189 233/455/189 234/456/189
f 229/436/207 231/435/207 235/454/211 233/453/211
f 236/446/210 234/445/210 205/392/198 207/391/198
f 234/456/189 233/455/189 206/390/189 205/389/189
o cap
v 0.030000 0.184303 0.110422
v 0.030000 0.182476 0.119606
v 0.030000 0.177273 0.127393
v 0.030000 0.169487 0.132595
v 0.030000 0.160303 0.134422
v 0.030000 -0.000000 0.108022
v 0.030000 0.002010 0.118125
v 0.030000 0.007732 0.126690
v 0.030000 0.016297 0.132412
v 0.030000 0.026400 0.134422
v 0.030000 0.184303 -0.110422
v 0.030000 0.182476 -0.119606
v 0.030000 0.177273 -0.127393
v 0.030000 0.169487 -0.132595
v 0.030000 0.160303 -0.134422
v 0.030000 -0.000000 -0.108022
v 0.030000 0.002010 -0.118125
v 0.030000 0.007732 -0.126690
v 0.030000 0.016297 -0.132412
v 0.030000 0.026400 -0.134422
v 0.043337 0.179718 0.118464
v 0.043257 0.181405 0.110137
v 0.030000 0.178780 0.118076
v 0.043337 0.175163 0.125282
v 0.030000 0.174445 0.124564
v 0.043337 0.168345 0.129837
v 0.030000 0.167957 0.128900
v 0.043257 0.160017 0.131524
v 0.030000 0.159911 0.130441
v 0.030000 0.003981 0.107630
v 0.043257 0.002898 0.107737
v 0.043337 0.004767 0.116983
v 0.043337 0.009843 0.124579
v 0.043337 0.017439 0.129655
v 0.043257 0.026685 0.131524
v 0.043337 0.179718 -0.118464
v 0.043257 0.181405 -0.110137
v 0.030000 0.178780 -0.118076
v 0.043337 0.175163 -0.125282
v 0.030000 0.174445 -0.124564
v 0.043337 0.168345 -0.129837
v 0.030000 0.167957 -0.128900
v 0.043257 0.160017 -0.131524
v 0.030000 0.159911 -0.130441
v 0.030000 0.003981 -0.107630
v 0.043257 0.002898 -0.107737
v 0.043337 0.004767 -0.116983
v 0.043337 0.009843 -0.124579
v 0.043337 0.017439 -0.129655
v 0.043257 0.026685 -0.131524
v 0.030000 0.180322 0.110030
v 0.030000 0.005705 0.116594
v 0.030000 0.010561 0.123861
v 0.030000 0.017828 0.128717
v 0.030000 0.026792 0.130441
v 0.030000 0.180322 -0.110030
v 0.030000 0.005705 -0.116594
v 0.030000 0.010561 -0.123861
v 0.030000 0.017828 -0.128717
v 0.030000 0.026792 -0.130441
v 0.046000 0.180303 0.110028
v 0.042000 0.184303 0.110422
v 0.045804 0.181539 0.110150
v 0.045236 0.182654 0.110260
v 0.044351 0.183539 0.110347
v 0.043236 0.184107 0.110403
v 0.046000 0.159909 0.130422
v 0.042000 0.160303 0.134422
v 0.045804 0.160031 0.131658
v 0.045236 0.160140 0.132773
v 0.044351 0.160228 0.133658
v 0.043236 0.160284 0.134226
v 0.046000 0.178708 0.118046
v 0.042000 0.182476 0.119606
v 0.045804 0.179872 0.118528
v 0.045236 0.180923 0.118963
v 0.044351 0.181756 0.119308
v 0.043236 0.182292 0.119530
v 0.046000 0.174390 0.124509
v 0.042000 0.177273 0.127393
v 0.045804 0.175281 0.125400
v 0.045236 0.176085 0.126204
v 0.044351 0.176723 0.126842
v 0.043236 0.177132 0.127251
v 0.046000 0.167927 0.128827
v 0.042000 0.169487 0.132595
v 0.045804 0.168409 0.129992
v 0.045236 0.168844 0.131042
v 0.044351 0.169189 0.131875
v 0.043236 0.169411 0.132411
v 0.046000 0.026794 0.130422
v 0.042000 0.026400 0.134422
v 0.045804 0.026672 0.131658
v 0.045236 0.026562 0.132773
v 0.044351 0.026475 0.133658
v 0.043236 0.026419 0.134226
v 0.046000 0.004000 0.107628
v 0.042000 -0.000000 0.108022
v 0.045804 0.002764 0.107750
v 0.045236 0.001649 0.107860
v 0.044351 0.000764 0.107947
v 0.043236 0.000196 0.108003
v 0.046000 0.017858 0.128644
v 0.042000 0.016297 0.132412
v 0.045804 0.017376 0.129809
v 0.045236 0.016941 0.130859
v 0.044351 0.016595 0.131693
v 0.043236 0.016374 0.132228
v 0.046000 0.010616 0.123806
v 0.042000 0.007732 0.126690
v 0.045804 0.009725 0.124697
v 0.045236 0.008921 0.125501
v 0.044351 0.008283 0.126139
v 0.043236 0.007874 0.126548
v 0.046000 0.005778 0.116564
v 0.042000 0.002010 0.118125
v 0.045804 0.004613 0.117046
v 0.045236 0.003563 0.117481
v 0.044351 0.002729 0.117827
v 0.043236 0.002194 0.118048
v 0.042000 0.184303 -0.110422
v 0.046000 0.180303 -0.110028
v 0.043236 0.184107 -0.110403
v 0.044351 0.183539 -0.110347
v 0.045236 0.182654 -0.110260
v 0.045804 0.181539 -0.110150
v 0.046000 0.159909 -0.130422
v 0.042000 0.160303 -0.134422
v 0.045804 0.160031 -0.131658
v 0.045236 0.160140 -0.132773
v 0.044351 0.160228 -0.133658
v 0.043236 0.160284 -0.134226
v 0.046000 0.178708 -0.118046
v 0.042000 0.182476 -0.119606
v 0.045804 0.179872 -0.118528
v 0.045236 0.180923 -0.118963
v 0.044351 0.181756 -0.119308
v 0.043236 0.182292 -0.119530
v 0.046000 0.174390 -0.124509
v 0.042000 0.177273 -0.127393
v 0.045804 0.175281 -0.125400
v 0.045236 0.176085 -0.126204
v 0.044351 0.176723 -0.126842
v 0.043236 0.177132 -0.127251
v 0.046000 0.167927 -0.128827
v 0.042000 0.169487 -0.132595
v 0.045804 0.168409 -0.129992
v 0.045236 0.168844 -0.131042
v 0.044351 0.169189 -0.131875
v 0.043236 0.169411 -0.132411
v 0.042000 0.026400 -0.134422
v 0.046000 0.026794 -0.130422
v 0.043236 0.026419 -0.134226
v 0.044351 0.026475 -0.133658
v 0.045236 0.026562 -0.132773
v 0.045804 0.026672 -0.131658
v 0.046000 0.004000 -0.107628
v 0.042000 -0.000000 -0.108022
v 0.045804 0.002764 -0.107750
v 0.045236 0.001649 -0.107860
v 0.044351 0.000764 -0.107947
v 0.043236 0.000196 -0.108003
v 0.042000 0.016297 -0.132412
v 0.046000 0.017858 -0.128644
v 0.043236 0.016374 -0.132228
v 0.044351 0.016595 -0.131693
v 0.045236 0.016941 -0.130859
v 0.045804 0.017376 -0.129809
v 0.042000 0.007732 -0.126690
v 0.046000 0.010616 -0.123806
v 0.043236 0.007874 -0.126548
v 0.044351 0.008283 -0.126139
v 0.045236 0.008921 -0.125501
v 0.045804 0.009725 -0.124697
v 0.042000 0.002010 -0.118125
v 0.046000 0.005778 -0.116564
v 0.043236 0.002194 -0.118048
v 0.044351 0.002729 -0.117827
v 0.045236 0.003563 -0.117481
v 0.045804 0.004613 -0.117046
vn 0.0801 0.9920 -0.0971
vn 0.0777 0.9213 -0.3810
vn 0.0777 0.9211 -0.3815
vn 0.0801 0.9920 -0.0974
vn 0.0759 0.7051 -0.7051
vn 0.0777 0.3810 -0.9213
vn 0.0777 0.3815 -0.9211
vn 0.0801 0.0971 -0.9920
vn 0.0801 0.0974 -0.9920
vn 0.0801 0.9920 0.0974
vn 0.0801 0.9920 0.0971
vn 0.0777 0.9211 0.3815
vn 0.0777 0.9213 0.3810
vn 0.0759 0.7051 0.7051
vn 0.0777 0.3815 0.9211
vn 0.0777 0.3810 0.9213
vn 0.0801 0.0974 0.9920
vn 0.0801 0.0971 0.9920
vn -1.0000 -0.0000 -0.0000
vn 0.0801 -0.0974 0.9920
vn 0.0801 -0.0971 0.9921
vn 0.0777 -0.3815 0.9211
vn 0.0777 -0.3809 0.9213
vn 0.0759 -0.7051 0.7051
vn 0.0777 -0.9211 0.3815
vn 0.0777 -0.9213 0.3809
vn 0.0801 -0.9920 0.0974
vn 0.0801 -0.9921 0.0971
vn 0.0801 -0.9920 -0.0974
vn 0.0801 -0.9921 -0.0971
vn 0.0801 -0.0971 -0.9921
vn 0.0801 -0.0974 -0.9920
vn 0.0777 -0.3815 -0.9211
vn 0.0777 -0.3809 -0.9213
vn 0.0759 -0.7051 -0.7051
vn 0.0777 -0.9211 -0.3815
vn 0.0777 -0.9213 -0.3809
vn 0.9947 0.0948 0.0393
vn 0.9946 0.1036 0.0102
vn 0.9486 0.3150 0.0310
vn 0.9470 0.2967 0.1229
vn 0.8057 0.5895 0.0581
vn 0.8050 0.5481 0.2270
vn 0.5850 0.8072 0.0795
vn 0.5857 0.7488 0.3102
vn 0.3075 0.9470 0.0933
vn 0.3085 0.8788 0.3640
vn 0.0788 0.9921 0.0977
vn 0.0798 0.9209 0.3815
vn 0.9947 0.0726 0.0726
vn 0.9470 0.2271 0.2271
vn 0.8050 0.4195 0.4195
vn 0.5857 0.5731 0.5731
vn 0.3085 0.6726 0.6726
vn 0.0800 0.7048 0.7048
vn 0.9947 0.0393 0.0948
vn 0.9470 0.1229 0.2967
vn 0.8050 0.2270 0.5481
vn 0.5857 0.3102 0.7488
vn 0.3085 0.3640 0.8788
vn 0.0799 0.3815 0.9209
vn 0.9946 0.0102 0.1036
vn 0.9486 0.0310 0.3150
vn 0.8057 0.0581 0.5895
vn 0.5849 0.0795 0.8072
vn 0.3075 0.0933 0.9470
vn 0.0788 0.0977 0.9921
vn 0.9946 -0.1036 0.0102
vn 0.9947 -0.0948 0.0393
vn 0.9470 -0.2967 0.1229
vn 0.9486 -0.3150 0.0310
vn 0.8050 -0.5481 0.2270
vn 0.8057 -0.5895 0.0581
vn 0.5857 -0.7488 0.3102
vn 0.5849 -0.8072 0.0795
vn 0.3085 -0.8788 0.3640
vn 0.3075 -0.9470 0.0933
vn 0.0800 -0.9209 0.3815
vn 0.0788 -0.9921 0.0977
vn 0.9947 -0.0726 0.0726
vn 0.9470 -0.2271 0.2271
vn 0.8050 -0.4195 0.4195
vn 0.5857 -0.5731 0.5731
vn 0.3085 -0.6726 0.6726
vn 0.0797 -0.7049 0.7049
vn 0.9947 -0.0393 0.0948
vn 0.9470 -0.1229 0.2967
vn 0.8050 -0.2270 0.5481
vn 0.5857 -0.3102 0.7488
vn 0.3085 -0.3640 0.8788
vn 0.0800 -0.3815 0.9209
vn 0.9946 -0.0102 0.1036
vn 0.9486 -0.0310 0.3150
vn 0.8057 -0.0581 0.5895
vn 0.5849 -0.0795 0.8072
vn 0.3075 -0.0933 0.9470
vn 0.0791 -0.0977 0.9921
vn 0.0800 0.9209 -0.3815
vn 0.0788 0.9921 -0.0977
vn 0.3075 0.9470 -0.0933
vn 0.3085 0.8788 -0.3640
vn 0.5850 0.8072 -0.0795
vn 0.5857 0.7488 -0.3102
vn 0.8057 0.5895 -0.0581
vn 0.8050 0.5481 -0.2270
vn 0.9486 0.3150 -0.0310
vn 0.9470 0.2967 -0.1229
vn 0.9946 0.1036 -0.0102
vn 0.9947 0.0948 -0.0393
vn 0.0800 0.7048 -0.7048
vn 0.3085 0.6726 -0.6726
vn 0.5857 0.5731 -0.5731
vn 0.8050 0.4195 -0.4195
vn 0.9470 0.2271 -0.2271
vn 0.9947 0.0726 -0.0726
vn 0.0800 0.3815 -0.9209
vn 0.3085 0.3640 -0.8788
vn 0.5857 0.3102 -0.7488
vn 0.8050 0.2270 -0.5481
vn 0.9470 0.1229 -0.2967
vn 0.9947 0.0393 -0.0948
vn 0.0790 0.0977 -0.9921
vn 0.3075 0.0933 -0.9470
vn 0.5849 0.0795 -0.8072
vn 0.8057 0.0581 -0.5895
vn 0.9486 0.0310 -0.3150
vn 0.9946 0.0102 -0.1036
vn 0.0788 -0.9921 -0.0977
vn 0.0800 -0.9209 -0.3815
vn 0.3085 -0.8788 -0.3640
vn 0.3075 -0.9470 -0.0933
vn 0.5857 -0.7488 -0.3102
vn 0.5849 -0.8072 -0.0795
vn 0.8050 -0.5481 -0.2270
vn 0.8057 -0.5895 -0.0581
vn 0.9470 -0.2967 -0.1229
vn 0.9486 -0.3150 -0.0310
vn 0.9947 -0.0948 -0.0393
vn 0.9946 -0.1036 -0.0102
vn 0.0800 -0.7048 -0.7048
vn 0.3085 -0.6726 -0.6726
vn 0.5857 -0.5731 -0.5731
vn 0.8050 -0.4195 -0.4195
vn 0.9470 -0.2271 -0.2271
vn 0.9947 -0.0726 -0.0726
vn 0.0800 -0.3815 -0.9209
vn 0.3085 -0.3640 -0.8788
vn 0.5857 -0.3102 -0.7488
vn 0.8050 -0.2270 -0.5481
vn 0.9470 -0.1229 -0.2967
vn 0.9947 -0.0393 -0.0948
vn 0.0790 -0.0977 -0.9921
vn 0.3075 -0.0933 -0.9470
vn 0.5849 -0.0795 -0.8072
vn 0.8057 -0.0581 -0.5895
vn 0.9486 -0.0310 -0.3150
vn 0.9946 -0.0102 -0.1036
vn -0.0000 0.9952 0.0980
vn -0.0000 0.9239 0.3827
vn -0.0000 0.9952 -0.0980
vn -0.0000 0.3827 0.9239
vn -0.0000 0.0980 0.9952
vn -0.0000 -0.0980 0.9952
vn -0.0000 0.7071 0.7071
vn -0.0000 -0.3827 0.9239
vn -0.0000 -0.9952 0.0980
vn -0.0000 -0.9952 -0.0980
vn -0.0000 -0.9239 0.3827
vn -0.0000 -0.7071 0.7071
vn -0.0000 0.9239 -0.3827
vn -0.0000 0.0980 -0.9952
vn -0.0000 0.3827 -0.9239
vn -0.0000 -0.0980 -0.9952
vn -0.0000 0.7071 -0.7071
vn -0.0000 -0.3827 -0.9239
vn -0.0000 -0.9239 -0.3827
vn -0.0000 -0.7071 -0.7071
vt 0.795870 0.544685
vt 0.795792 0.534477
vt 0.811010 0.534034
vt 0.811004 0.544563
vt 0.795570 0.526201
vt 0.810778 0.525384
vt 0.697716 0.786737
vt 0.697973 0.777086
vt 0.715721 0.777599
vt 0.715452 0.787687
vt 0.698063 0.765181
vt 0.715712 0.765320
vt 0.811004 0.789935
vt 0.795870 0.789814
vt 0.811010 0.800464
vt 0.795792 0.800022
vt 0.810778 0.809115
vt 0.795570 0.808297
vt 0.141583 0.810307
vt 0.118558 0.811541
vt 0.118209 0.798444
vt 0.141249 0.797778
vt 0.118221 0.782504
vt 0.141133 0.782324
vt 0.570300 0.569640
vt 0.581606 0.571926
vt 0.590895 0.578133
vt 0.597102 0.587422
vt 0.599388 0.598728
vt 0.599388 0.761771
vt 0.597325 0.771954
vt 0.591754 0.780291
vt 0.583417 0.785862
vt 0.573234 0.787924
vt 0.303878 0.787924
vt 0.293694 0.785862
vt 0.285357 0.780291
vt 0.279787 0.771954
vt 0.277724 0.761771
vt 0.277724 0.598728
vt 0.280010 0.587422
vt 0.286217 0.578133
vt 0.295506 0.571926
vt 0.306813 0.569640
vt 0.118260 0.552636
vt 0.141172 0.552824
vt 0.118242 0.538279
vt 0.141281 0.538953
vt 0.118558 0.526525
vt 0.141583 0.527767
vt 0.823037 0.788551
vt 0.836200 0.788168
vt 0.836371 0.794559
vt 0.823217 0.795266
vt 0.823049 0.780349
vt 0.836139 0.780244
vt 0.823049 0.563399
vt 0.836139 0.563504
vt 0.698032 0.588396
vt 0.715682 0.588251
vt 0.715696 0.577192
vt 0.697948 0.577711
vt 0.715452 0.568138
vt 0.697716 0.569094
vt 0.823037 0.555197
vt 0.823217 0.548482
vt 0.836371 0.549189
vt 0.836200 0.555580
vt 0.628346 0.554193
vt 0.624098 0.558377
vt 0.614476 0.551840
vt 0.616800 0.546349
vt 0.637089 0.779155
vt 0.631161 0.778525
vt 0.632691 0.580108
vt 0.638629 0.579569
vt 0.260381 0.812607
vt 0.262705 0.807116
vt 0.276047 0.809789
vt 0.275416 0.815718
vt 0.602502 0.549450
vt 0.603132 0.543521
vt 0.633978 0.794191
vt 0.628487 0.791866
vt 0.240738 0.562810
vt 0.246228 0.565134
vt 0.243838 0.577109
vt 0.237909 0.576479
vt 0.274496 0.546920
vt 0.273958 0.540982
vt 0.625350 0.806891
vt 0.621166 0.802642
vt 0.248582 0.551265
vt 0.252765 0.555513
vt 0.596897 0.812264
vt 0.597436 0.818202
vt 0.612518 0.815322
vt 0.610279 0.809797
vt 0.260247 0.543600
vt 0.262486 0.549125
vt 0.242308 0.775526
vt 0.236370 0.776065
vt 0.244775 0.788907
vt 0.239249 0.791147
vt 0.630485 0.568098
vt 0.636011 0.565859
vt 0.251929 0.799795
vt 0.247681 0.803978
vt 0.071200 0.473788
vt 0.096119 0.477880
vt 0.095740 0.481051
vt 0.069701 0.476775
vt 0.095361 0.488138
vt 0.066437 0.483307
vt 0.748883 0.544687
vt 0.748803 0.554518
vt 0.747063 0.554433
vt 0.747141 0.544671
vt 0.745886 0.554378
vt 0.745964 0.544662
vt 0.744581 0.554359
vt 0.744659 0.544659
vt 0.051112 0.462710
vt 0.048343 0.464996
vt 0.042290 0.469992
vt 0.749093 0.536723
vt 0.747357 0.536569
vt 0.746183 0.536469
vt 0.744879 0.536435
vt 0.037691 0.446130
vt 0.034072 0.447367
vt 0.026159 0.450061
vt 0.661040 0.580293
vt 0.660774 0.570280
vt 0.662956 0.570085
vt 0.663229 0.580274
vt 0.664433 0.569960
vt 0.664710 0.580261
vt 0.666072 0.569917
vt 0.666350 0.580257
vt 0.032734 0.425561
vt 0.028892 0.425874
vt 0.020308 0.426206
vt 0.661142 0.592644
vt 0.663330 0.592542
vt 0.664810 0.592477
vt 0.666450 0.592454
vt 0.103578 0.025596
vt 0.075804 0.030156
vt 0.074306 0.027169
vt 0.103200 0.022425
vt 0.072953 0.024475
vt 0.102858 0.019565
vt 0.070992 0.020560
vt 0.102567 0.015337
vt 0.073616 0.555723
vt 0.073527 0.544732
vt 0.076516 0.544722
vt 0.076603 0.555668
vt 0.077852 0.544719
vt 0.077940 0.555649
vt 0.053297 0.042570
vt 0.050528 0.040283
vt 0.046628 0.037449
vt 0.044727 0.034955
vt 0.073284 0.535590
vt 0.076269 0.535488
vt 0.077604 0.535453
vt 0.038259 0.061147
vt 0.034640 0.059910
vt 0.026727 0.057215
vt 0.660774 0.794711
vt 0.661064 0.783664
vt 0.663253 0.783683
vt 0.662956 0.794905
vt 0.664734 0.783694
vt 0.664433 0.795029
vt 0.666375 0.783698
vt 0.666072 0.795072
vt 0.032734 0.084072
vt 0.028892 0.083759
vt 0.020309 0.083422
vt 0.661171 0.770096
vt 0.663360 0.770196
vt 0.664839 0.770259
vt 0.666480 0.770281
vt 0.744659 0.797313
vt 0.744581 0.787612
vt 0.745886 0.787593
vt 0.745964 0.797309
vt 0.747063 0.787539
vt 0.747141 0.797300
vt 0.748803 0.787454
vt 0.748883 0.797285
vt 0.809737 0.483307
vt 0.780813 0.488138
vt 0.780434 0.481051
vt 0.806473 0.476776
vt 0.780055 0.477880
vt 0.804974 0.473789
vt 0.744879 0.805536
vt 0.746183 0.805502
vt 0.747357 0.805403
vt 0.749093 0.805248
vt 0.833884 0.469992
vt 0.827831 0.464996
vt 0.825062 0.462710
vt 0.199965 0.526581
vt 0.200149 0.519763
vt 0.201229 0.519792
vt 0.201047 0.526584
vt 0.202203 0.519874
vt 0.202023 0.526592
vt 0.203642 0.520003
vt 0.203467 0.526605
vt 0.850015 0.450061
vt 0.842102 0.447367
vt 0.838483 0.446130
vt 0.199900 0.534623
vt 0.200981 0.534638
vt 0.201957 0.534681
vt 0.203399 0.534748
vt 0.855866 0.426206
vt 0.847282 0.425874
vt 0.843440 0.425562
vt 0.077940 0.789377
vt 0.077852 0.800307
vt 0.076516 0.800303
vt 0.076603 0.789358
vt 0.073527 0.800294
vt 0.073616 0.789303
vt 0.773607 0.015337
vt 0.805182 0.020560
vt 0.803221 0.024475
vt 0.773316 0.019565
vt 0.801868 0.027169
vt 0.772975 0.022425
vt 0.800370 0.030156
vt 0.772596 0.025596
vt 0.077604 0.809572
vt 0.076269 0.809537
vt 0.073284 0.809436
vt 0.831447 0.034955
vt 0.829546 0.037448
vt 0.825646 0.040283
vt 0.822876 0.042569
vt 0.198759 0.806472
vt 0.199949 0.660717
vt 0.201027 0.660975
vt 0.200646 0.805922
vt 0.201996 0.661722
vt 0.202355 0.804323
vt 0.203470 0.662882
vt 0.204799 0.801832
vt 0.849447 0.057215
vt 0.841534 0.059910
vt 0.837915 0.061147
vt 0.199880 0.651870
vt 0.200962 0.651856
vt 0.201937 0.651814
vt 0.203380 0.651748
vt 0.855865 0.083422
vt 0.847282 0.083759
vt 0.843440 0.084072
vt 0.731917 0.554359
vt 0.731995 0.544659
vt 0.166540 0.043084
vt 0.705724 0.043084
vt 0.728107 0.047298
vt 0.746247 0.058770
vt 0.758367 0.075939
vt 0.762819 0.097125
vt 0.762819 0.412722
vt 0.758825 0.431731
vt 0.748008 0.447054
vt 0.731819 0.457292
vt 0.711735 0.461073
vt 0.160529 0.461073
vt 0.140445 0.457292
vt 0.124256 0.447054
vt 0.113439 0.431731
vt 0.109445 0.412722
vt 0.109445 0.097125
vt 0.113897 0.075939
vt 0.126017 0.058770
vt 0.144157 0.047298
vt 0.731917 0.787612
vt 0.682274 0.580255
vt 0.682373 0.592452
vt 0.682403 0.770279
vt 0.732215 0.536435
vt 0.681995 0.569914
vt 0.682298 0.783695
vt 0.090911 0.555649
vt 0.090911 0.789377
vt 0.090824 0.544719
vt 0.681995 0.795070
vt 0.090576 0.535453
vt 0.731995 0.797313
vt 0.189401 0.534621
vt 0.189466 0.526579
vt 0.189381 0.651869
vt 0.732215 0.805536
vt 0.189650 0.519762
vt 0.189450 0.660715
vt 0.090824 0.800307
vt 0.180504 0.806469
vt 0.090576 0.809572
s 1
usemtl first_aid_kit
f 266/457/212 288/458/213 268/459/214 267/460/215
f 288/458/213 289/461/216 269/462/216 268/459/214
f 289/463/216 290/464/217 270/465/218 269/466/216
f 290/464/217 291/467/219 271/468/220 270/465/218
f 266/457/212 267/460/215 282/469/221 281/470/222
f 281/470/222 282/469/221 283/471/223 293/472/224
f 293/472/224 283/471/223 284/473/225 294/474/225
f 294/475/225 284/476/225 285/477/226 295/478/227
f 295/478/227 285/477/226 286/479/228 296/480/229
f 267/481/230 268/482/230 269/483/230 270/484/230 271/485/230 264/486/230 262/487/230 260/488/230 257/489/230 258/490/230 273/491/230 272/492/230 275/493/230 277/494/230 279/495/230 286/496/230 285/497/230 284/498/230 283/499/230 282/500/230
f 286/479/228 279/501/231 280/502/232 296/480/229
f 277/503/233 278/504/234 280/502/232 279/501/231
f 275/505/235 276/506/235 278/504/234 277/503/233
f 272/507/236 274/508/237 276/509/235 275/510/235
f 273/511/238 292/512/239 274/508/237 272/507/236
f 258/513/240 287/514/241 292/512/239 273/511/238
f 271/468/220 291/467/219 265/515/242 264/516/243
f 262/517/244 264/516/243 265/515/242 263/518/245
f 260/519/246 262/517/244 263/518/245 261/520/246
f 257/521/247 260/522/246 261/523/246 259/524/248
f 258/513/240 257/521/247 259/524/248 287/514/241
f 249/525/230 276/526/230 274/527/230 248/528/230
f 256/529/230 296/530/230 280/531/230 251/532/230
f 243/533/230 288/534/230 266/535/230 242/536/230
f 248/528/230 274/527/230 292/537/230 247/538/230
f 255/539/230 295/540/230 296/530/230 256/529/230
f 240/541/230 263/542/230 265/543/230 241/544/230
f 247/538/230 292/537/230 287/545/230 237/546/230
f 254/547/230 294/548/230 295/540/230 255/539/230
f 239/549/230 261/550/230 263/542/230 240/541/230
f 242/536/230 266/535/230 281/551/230 252/552/230
f 253/553/230 293/554/230 294/548/230 254/547/230
f 238/555/230 259/556/230 261/550/230 239/549/230
f 241/544/230 265/543/230 291/557/230 246/558/230
f 252/552/230 281/551/230 293/554/230 253/553/230
f 237/546/230 287/545/230 259/556/230 238/555/230
f 246/558/230 291/557/230 290/559/230 245/560/230
f 251/532/230 280/531/230 278/561/230 250/562/230
f 245/560/230 290/559/230 289/563/230 244/564/230
f 250/562/230 278/561/230 276/526/230 249/525/230
f 244/564/230 289/563/230 288/534/230 243/533/230
f 309/565/249 297/566/250 299/567/251 311/568/252
f 311/568/252 299/567/251 300/569/253 312/570/254
f 312/571/254 300/572/253 301/573/255 313/574/256
f 313/574/256 301/573/255 302/575/257 314/576/258
f 314/576/258 302/575/257 298/577/259 310/578/260
f 315/579/261 309/565/249 311/568/252 317/580/262
f 317/580/262 311/568/252 312/570/254 318/581/263
f 318/582/263 312/571/254 313/574/256 319/583/264
f 319/583/264 313/574/256 314/576/258 320/584/265
f 320/584/265 314/576/258 310/578/260 316/585/266
f 321/586/267 315/579/261 317/580/262 323/587/268
f 323/587/268 317/580/262 318/581/263 324/588/269
f 324/589/269 318/590/263 319/591/264 325/592/270
f 325/592/270 319/591/264 320/593/265 326/594/271
f 326/594/271 320/593/265 316/595/266 322/596/272
f 303/597/273 321/586/267 323/587/268 305/598/274
f 305/598/274 323/587/268 324/588/269 306/599/275
f 306/600/275 324/589/269 325/592/270 307/601/276
f 307/601/276 325/592/270 326/594/271 308/602/277
f 308/602/277 326/594/271 322/596/272 304/603/278
f 333/604/279 351/605/280 353/606/281 335/607/282
f 335/607/282 353/606/281 354/608/283 336/609/284
f 336/609/284 354/608/283 355/610/285 337/611/286
f 337/612/286 355/613/285 356/614/287 338/615/288
f 338/615/288 356/614/287 352/616/289 334/617/290
f 351/605/280 345/618/291 347/619/292 353/606/281
f 353/606/281 347/619/292 348/620/293 354/608/283
f 354/608/283 348/620/293 349/621/294 355/610/285
f 355/613/285 349/622/294 350/623/295 356/614/287
f 356/614/287 350/623/295 346/624/296 352/616/289
f 345/618/291 339/625/297 341/626/298 347/619/292
f 347/619/292 341/626/298 342/627/299 348/620/293
f 348/628/293 342/629/299 343/630/300 349/631/294
f 349/631/294 343/630/300 344/632/301 350/633/295
f 350/633/295 344/632/301 340/634/302 346/635/296
f 339/625/297 327/636/303 329/637/304 341/626/298
f 341/626/298 329/637/304 330/638/305 342/627/299
f 342/629/299 330/639/305 331/640/306 343/630/300
f 343/630/300 331/640/306 332/641/307 344/632/301
f 344/632/301 332/641/307 328/642/308 340/634/302
f 327/636/303 303/597/273 305/598/274 329/637/304
f 329/637/304 305/598/274 306/599/275 330/638/305
f 330/639/305 306/600/275 307/601/276 331/640/306
f 331/640/306 307/601/276 308/602/277 332/641/307
f 332/641/307 308/602/277 304/603/278 328/642/308
f 370/643/309 357/644/310 359/645/311 374/646/312
f 374/646/312 359/645/311 360/647/313 373/648/314
f 373/648/314 360/647/313 361/649/315 372/650/316
f 372/651/316 361/652/315 362/653/317 371/654/318
f 371/654/318 362/653/317 358/655/319 369/656/320
f 376/657/321 370/643/309 374/646/312 380/658/322
f 380/658/322 374/646/312 373/648/314 379/659/323
f 379/659/323 373/648/314 372/650/316 378/660/324
f 378/661/324 372/651/316 371/654/318 377/662/325
f 377/662/325 371/654/318 369/656/320 375/663/326
f 382/664/327 376/665/321 380/666/322 386/667/328
f 386/667/328 380/666/322 379/668/323 385/669/329
f 385/669/329 379/668/323 378/670/324 384/671/330
f 384/672/330 378/661/324 377/662/325 383/673/331
f 383/673/331 377/662/325 375/663/326 381/674/332
f 364/675/333 382/664/327 386/667/328 368/676/334
f 368/676/334 386/667/328 385/669/329 367/677/335
f 367/677/335 385/669/329 384/671/330 366/678/336
f 366/679/336 384/672/330 383/673/331 365/680/337
f 365/680/337 383/673/331 381/674/332 363/681/338
f 297/566/250 358/655/319 362/653/317 299/567/251
f 299/567/251 362/653/317 361/652/315 300/569/253
f 300/572/253 361/649/315 360/647/313 301/573/255
f 301/573/255 360/647/313 359/645/311 302/575/257
f 302/575/257 359/645/311 357/644/310 298/577/259
f 394/682/339 411/683/340 413/684/341 398/685/342
f 398/685/342 413/684/341 414/686/343 397/687/344
f 397/688/344 414/689/343 415/690/345 396/691/346
f 396/691/346 415/690/345 416/692/347 395/693/348
f 395/693/348 416/692/347 412/694/349 393/695/350
f 411/683/340 405/696/351 407/697/352 413/684/341
f 413/684/341 407/697/352 408/698/353 414/686/343
f 414/689/343 408/699/353 409/700/354 415/690/345
f 415/690/345 409/700/354 410/701/355 416/692/347
f 416/692/347 410/701/355 406/702/356 412/694/349
f 405/703/351 399/704/357 401/705/358 407/706/352
f 407/706/352 401/705/358 402/707/359 408/708/353
f 408/708/353 402/707/359 403/709/360 409/710/354
f 409/700/354 403/711/360 404/712/361 410/701/355
f 410/701/355 404/712/361 400/713/362 406/702/356
f 399/704/357 387/714/363 389/715/364 401/705/358
f 401/705/358 389/715/364 390/716/365 402/707/359
f 402/707/359 390/716/365 391/717/366 403/709/360
f 403/711/360 391/718/366 392/719/367 404/712/361
f 404/712/361 392/719/367 388/720/368 400/713/362
f 387/714/363 364/675/333 368/676/334 389/715/364
f 389/715/364 368/676/334 367/677/335 390/716/365
f 390/716/365 367/677/335 366/678/336 391/717/366
f 391/718/366 366/679/336 365/680/337 392/719/367
f 392/719/367 365/680/337 363/681/338 388/720/368
f 334/617/290 394/682/339 398/685/342 338/615/288
f 338/615/288 398/685/342 397/687/344 337/612/286
f 337/611/286 397/688/344 396/691/346 336/609/284
f 336/609/284 396/691/346 395/693/348 335/607/282
f 335/607/282 395/693/348 393/695/350 333/604/279
f 298/577/259 237/721/369 238/722/370 310/578/260
f 333/723/279 393/724/350 412/725/349 406/726/356 400/727/362 388/728/368 363/729/338 381/730/332 375/731/326 369/732/320 358/733/319 297/734/250 309/735/249 315/736/261 321/737/267 303/738/273 327/739/303 339/740/297 345/741/291 351/742/280
f 298/577/259 357/644/310 247/743/371 237/721/369
f 322/596/272 240/744/372 241/745/373 304/603/278
f 328/642/308 304/603/278 241/745/373 246/746/374
f 310/578/260 238/722/370 239/747/375 316/585/266
f 316/595/266 239/748/375 240/744/372 322/596/272
f 245/749/376 340/634/302 328/642/308 246/746/374
f 242/750/377 252/751/378 394/682/339 334/617/290
f 242/750/377 334/617/290 352/616/289 243/752/379
f 244/753/380 346/635/296 340/634/302 245/749/376
f 243/752/379 352/616/289 346/624/296 244/754/380
f 357/644/310 370/643/309 248/755/381 247/743/371
f 382/664/327 364/675/333 251/756/382 250/757/383
f 387/714/363 256/758/384 251/756/382 364/675/333
f 370/643/309 376/657/321 249/759/385 248/755/381
f 376/665/321 382/664/327 250/757/383 249/760/385
f 255/761/386 256/758/384 387/714/363 399/704/357
f 252/751/378 253/762/387 411/683/340 394/682/339
f 254/763/388 255/761/386 399/704/357 405/703/351
f 253/762/387 254/764/388 405/696/351 411/683/340
